# xmcd
#
# Track frame offsets:
#	150
#	11747
#	25422
#	37972
#	49115
#	67087
#	79480
#	92340
#	105932
#	117632
#	128500
#	138575
#	166930
#	176245
#	183677
#	196072
#	207182
#	221185
#	230970
#	243647
#
# Disc length: 3415 seconds
#
# Revision: 0
# Processed by: cddbd v1.5.1PL2 Copyright (c) Steve Scherf et al.
# Submitted via: MusicWizard 7.2.0
#
DISCID=280d5514
DTITLE=Various Artist - Twenty Gospel Greats
DYEAR=1992
DGENRE=Gospel
TTITLE0=The Highway Qcs - Walk With Me
TTITLE1=The Swan Silvertones - How I Got Over
TTITLE2=The Caravans - My Religion
TTITLE3=The Five Blind Boys Of Alabama - I Can See Everybody압 Mother
TTITLE4=The Greater Harvest Choir - He Has A Way
TTITLE5=The Argo Sisters - Jesus Is The Answer
TTITLE6=The Harmonizing Four - When Tears Are Falling
TTITLE7=The Staple Singers - Uncloudy Day
TTITLE8=The Soul Stirrers - My Loved Ones
TTITLE9=The Original 5 Blind Boys Of Mississippi - I았e Been Weeping A Mighty Long Time
TTITLE10=The Bells Of Joy - Have I Told You About My Religion
TTITLE11=Aretha Franklin - Precious Lord PT. 1&2
TTITLE12=The Five Blind Boys Of Alabama - What He압 Done For Me
TTITLE13=The Argo Singers - See How He Kept Me
TTITLE14=The Swan Silvertones - That Day On Calvary
TTITLE15=The Caravans - It압 Jesus In Me
TTITLE16=The Harmonizing Four - Wade In The Water
TTITLE17=The Highway QCs - It압 Me
TTITLE18=The Staple Singers - Will The Circle Be Unbroken
TTITLE19=The Swan Silvertones - Oh Mary Don앖 You Weep
EXTD=Charly CDCD 1074 YEAR: 1992 ID3G: 38
EXTT0=Highway QCs, The
EXTT1=Swan Sillvertones, The
EXTT2=Caravans, The
EXTT3=Five Blind Boys of Alabama, The
EXTT4=Yesterday: 08.05.2006
EXTT5=Argo Singers, The
EXTT6=Harmonizing Four, The
EXTT7=Staple Singers, The
EXTT8=Soul Stirrers, The
EXTT9=Yesterday: 08.05.2006
EXTT10=Bells Of Joy, The
EXTT11=Aretha Franklin
EXTT12=Yesterday: 08.05.2006
EXTT13=Yesterday: 08.05.2006
EXTT14=Swan Silvertones, The
EXTT15=Caravans, The
EXTT16=The Harmonizing Four
EXTT17=Highway QCs, The
EXTT18=Staple Singers, The
EXTT19=Swan Silvertones, The
PLAYORDER=
